<?xml version="1.0" standalone="no"?>
<!DOCTYPE svg PUBLIC "-//W3C//DTD SVG 20010904//EN"
 "http://www.w3.org/TR/2001/REC-SVG-20010904/DTD/svg10.dtd">
<svg version="1.0" xmlns="http://www.w3.org/2000/svg"
 width="512.000000pt" height="512.000000pt" viewBox="0 0 512.000000 512.000000"
 preserveAspectRatio="xMidYMid meet">
<metadata>
Created by potrace 1.14, written by Peter Selinger 2001-2017
</metadata>
<g transform="translate(0.000000,512.000000) scale(0.100000,-0.100000)"
fill="#000000" stroke="none">
<path d="M2320 5062 c-8 -5 -64 -15 -125 -22 -155 -18 -393 -81 -558 -149 -16
-6 -31 -11 -34 -11 -9 0 -284 -138 -315 -158 -14 -9 -50 -31 -80 -48 -64 -38
-273 -200 -333 -258 -23 -22 -58 -55 -76 -72 -69 -63 -202 -218 -296 -346
-135 -184 -281 -490 -355 -743 -39 -135 -68 -280 -75 -370 -3 -38 -9 -78 -14
-87 -12 -22 -12 -471 0 -484 5 -5 11 -43 14 -84 16 -217 117 -552 239 -795
109 -217 215 -371 383 -560 39 -43 85 -92 104 -109 18 -17 53 -50 76 -72 60
-58 269 -220 333 -258 30 -17 66 -39 80 -48 60 -39 320 -162 410 -195 136 -49
365 -107 507 -128 168 -26 552 -26 720 0 142 21 371 79 507 128 90 33 350 156
410 195 14 9 50 31 80 48 70 42 286 209 318 247 14 16 39 39 56 51 50 35 225
235 331 378 212 289 403 783 430 1113 3 39 9 78 14 87 12 22 12 464 0 486 -5
9 -11 49 -14 87 -18 216 -119 550 -239 790 -53 105 -157 279 -199 334 -86 111
-123 157 -184 226 -38 43 -85 92 -104 109 -18 17 -54 51 -80 75 -73 69 -258
210 -351 268 -77 47 -358 193 -373 193 -3 0 -18 5 -34 11 -158 65 -390 128
-568 154 -130 19 -578 32 -605 17z m475 -102 c3 -5 20 -10 38 -10 48 0 250
-31 269 -41 9 -5 30 -9 47 -9 16 0 33 -4 36 -10 3 -5 15 -10 25 -10 18 0 89
-21 135 -39 11 -4 40 -15 65 -24 88 -31 116 -42 170 -72 30 -17 71 -37 90 -45
30 -12 72 -35 156 -87 10 -7 42 -25 69 -41 124 -73 409 -328 521 -466 21 -27
47 -57 57 -67 9 -11 17 -22 17 -25 0 -3 16 -25 36 -49 35 -44 194 -302 194
-316 0 -4 23 -55 50 -112 28 -58 50 -110 50 -116 0 -6 4 -19 10 -29 15 -29 49
-137 89 -289 6 -23 18 -86 27 -140 8 -54 19 -120 24 -148 11 -65 11 -455 0
-520 -5 -27 -16 -94 -24 -148 -9 -54 -21 -117 -27 -140 -40 -152 -74 -260 -89
-289 -6 -10 -10 -23 -10 -29 0 -6 -22 -58 -50 -116 -27 -57 -50 -108 -50 -112
0 -14 -159 -272 -194 -316 -20 -24 -36 -46 -36 -49 0 -3 -8 -15 -17 -26 -10
-10 -36 -41 -58 -67 -121 -146 -421 -413 -530 -472 -22 -12 -47 -26 -55 -31
-63 -41 -166 -100 -176 -100 -7 0 -38 -15 -71 -32 -57 -33 -84 -44 -173 -75
-25 -9 -54 -20 -65 -24 -46 -18 -117 -39 -135 -39 -10 0 -22 -4 -25 -10 -3 -5
-19 -10 -35 -10 -16 0 -39 -5 -52 -10 -13 -6 -86 -20 -163 -32 -159 -24 -580
-37 -599 -18 -5 5 -24 10 -40 10 -47 0 -249 31 -268 41 -9 5 -30 9 -47 9 -16
0 -33 5 -36 10 -3 5 -15 10 -25 10 -22 0 -106 26 -132 40 -10 6 -24 10 -32 10
-54 0 -507 233 -572 294 -7 6 -24 20 -40 31 -146 105 -378 327 -459 438 -11
16 -43 59 -72 97 -28 38 -58 81 -65 95 -7 13 -36 64 -64 112 -54 94 -134 256
-153 313 -38 108 -44 127 -52 143 -5 9 -18 54 -30 100 -11 45 -25 100 -30 122
-57 229 -71 644 -31 890 12 72 26 148 31 170 34 140 52 207 60 222 4 10 14 34
20 53 7 19 20 55 28 80 22 63 109 243 152 315 20 33 41 69 48 80 7 11 16 29
22 41 5 11 33 52 62 91 30 40 63 84 74 100 80 110 309 329 459 438 15 11 37
28 49 38 12 11 38 28 57 38 19 11 53 31 75 44 22 14 87 49 145 78 58 30 114
58 125 64 35 19 149 63 163 63 7 0 20 4 30 10 26 14 110 40 132 40 10 0 22 5
25 10 3 6 20 10 36 10 17 0 38 4 47 9 19 10 221 41 269 41 18 0 35 5 38 10 4
6 92 10 230 10 138 0 226 -4 230 -10z"/>
<path d="M2615 4830 c-3 -5 -18 -10 -32 -10 -38 0 -80 -36 -103 -87 -54 -121
7 -248 133 -277 47 -11 150 46 169 93 18 45 27 105 21 147 -8 60 -32 85 -135
135 -24 12 -45 11 -53 -1z m77 -107 c15 -35 18 -56 13 -96 -13 -94 -60 -130
-114 -88 -32 25 -42 140 -17 190 33 63 89 60 118 -6z"/>
<path d="M2255 4808 c-4 -9 -30 -14 -76 -15 -39 -1 -76 -6 -82 -12 -6 -6 -26
-11 -44 -11 -18 0 -41 -4 -51 -9 -9 -6 -29 -12 -44 -16 -32 -6 -42 -35 -30
-80 6 -23 14 -30 33 -30 19 0 25 6 27 28 2 15 10 28 18 29 8 0 19 1 26 2 13 1
26 -41 35 -109 3 -22 9 -44 14 -49 5 -6 9 -27 9 -47 0 -29 -5 -39 -20 -44 -24
-8 -26 -28 -4 -46 12 -10 20 -10 35 -1 10 7 30 12 44 12 31 0 95 30 95 45 0
16 -22 35 -41 35 -13 0 -20 14 -27 53 -11 52 -28 127 -38 160 -4 13 1 17 22
17 15 0 35 -7 45 -16 29 -26 53 -10 46 31 -6 38 -1 42 28 21 19 -13 27 -52 42
-195 4 -48 2 -56 -17 -71 -21 -15 -21 -16 -2 -33 14 -13 25 -15 52 -7 18 5 36
7 41 4 4 -2 20 -2 34 2 30 8 34 39 5 54 -16 9 -20 21 -20 65 0 29 -4 57 -10
60 -5 3 -10 32 -10 64 0 45 4 62 20 76 40 36 26 45 -65 45 -59 0 -87 -4 -90
-12z"/>
<path d="M2836 4801 c-18 -20 -15 -41 6 -41 6 0 19 -7 28 -15 14 -13 15 -23 7
-63 -5 -26 -11 -75 -14 -110 -4 -55 -8 -65 -29 -74 -52 -24 -20 -57 57 -61 46
-2 54 1 57 17 2 11 -4 25 -13 32 -18 13 -17 48 2 124 l9 35 20 -31 c11 -18 40
-75 64 -128 51 -107 72 -121 89 -58 17 63 52 206 58 234 4 20 12 28 31 30 17
2 28 10 30 22 5 24 -14 36 -56 36 -18 0 -41 5 -52 12 -15 10 -23 9 -39 -6 -16
-15 -18 -22 -10 -33 6 -7 18 -13 25 -13 18 0 18 -5 -5 -69 l-19 -54 -24 49
c-68 135 -91 164 -124 164 -13 0 -26 5 -29 10 -10 17 -51 11 -69 -9z"/>
<path d="M1726 4653 c-4 -9 -6 -86 -5 -171 0 -100 -3 -158 -10 -165 -6 -6 -11
-19 -11 -29 0 -39 120 -6 128 35 2 11 -6 21 -22 27 -39 14 -33 44 13 68 36 19
41 19 53 5 7 -9 13 -30 13 -47 0 -42 24 -45 91 -11 37 19 54 33 54 46 0 12 -7
19 -19 19 -19 0 -92 70 -195 185 -50 56 -79 68 -90 38z m84 -157 c0 -16 -18
-31 -27 -22 -8 8 5 36 17 36 5 0 10 -6 10 -14z"/>
<path d="M3301 4553 c-59 -64 -117 -120 -133 -125 -20 -7 -28 -17 -28 -34 0
-19 7 -24 38 -30 20 -4 44 -10 52 -14 33 -16 55 21 28 48 -8 8 -8 15 2 27 13
16 34 14 78 -7 31 -16 29 -54 -3 -62 -14 -4 -25 -12 -25 -20 0 -12 90 -66 111
-66 4 0 58 -31 119 -70 61 -38 113 -70 116 -70 3 0 23 14 45 32 59 48 46 98
-17 65 -25 -13 -32 -13 -61 1 -18 9 -33 19 -33 23 0 10 87 179 101 195 6 8 25
14 41 14 24 0 29 4 26 21 -2 12 -12 27 -22 33 -11 6 -40 23 -65 39 -56 34 -81
35 -81 4 0 -13 5 -28 11 -34 8 -8 -3 -40 -42 -120 -29 -59 -54 -109 -55 -111
-1 -1 -13 2 -28 7 l-26 11 0 180 0 180 -22 -1 c-16 -1 -56 -37 -127 -116z m59
-58 c0 -8 -7 -15 -15 -15 -16 0 -20 12 -8 23 11 12 23 8 23 -8z"/>
<path d="M1500 4558 c-42 -21 -55 -33 -55 -50 0 -18 6 -24 31 -26 25 -2 34
-11 53 -49 12 -25 20 -47 18 -49 -2 -2 -26 4 -53 15 -27 10 -75 27 -107 36
-58 17 -59 17 -85 -4 -15 -12 -37 -26 -49 -31 -30 -13 -32 -60 -3 -60 11 0 20
5 20 10 0 6 8 10 19 10 12 0 37 -29 75 -87 48 -73 58 -95 57 -130 0 -52 11
-60 48 -34 16 12 33 21 38 21 6 0 18 9 28 20 24 26 13 52 -22 48 -23 -3 -33 5
-64 52 -21 30 -38 59 -38 64 -1 16 74 -6 154 -45 78 -38 105 -45 118 -33 3 3
-21 58 -52 122 -67 136 -77 167 -56 176 21 8 19 43 -2 48 -10 2 -43 -9 -73
-24z"/>
<path d="M2365 4334 c-22 -3 -49 -9 -60 -14 -11 -5 -40 -11 -65 -13 -45 -5
-118 -22 -155 -37 -11 -4 -40 -14 -65 -21 -25 -7 -56 -19 -70 -26 -14 -7 -29
-13 -33 -13 -41 0 -355 -187 -415 -247 -7 -7 -17 -13 -22 -13 -32 0 -366 -378
-387 -439 -3 -9 -16 -30 -28 -46 -29 -39 -109 -199 -125 -250 -7 -22 -15 -44
-19 -50 -12 -22 -40 -111 -41 -132 0 -12 -4 -25 -10 -28 -6 -3 -10 -22 -10
-41 0 -19 -4 -42 -10 -52 -31 -55 -46 -492 -22 -632 17 -99 33 -173 42 -195 5
-11 11 -33 13 -50 6 -40 51 -164 89 -245 16 -36 35 -76 41 -90 6 -14 25 -47
42 -75 17 -27 36 -61 43 -75 7 -14 28 -43 47 -65 19 -22 35 -43 35 -46 0 -14
215 -249 247 -270 11 -8 52 -39 90 -70 37 -30 93 -71 124 -90 30 -19 64 -39
75 -46 24 -15 183 -94 209 -104 149 -57 209 -74 380 -106 126 -24 443 -23 575
1 52 10 110 20 128 23 18 3 35 9 38 14 3 5 15 9 27 9 23 0 111 31 123 43 4 4
16 7 26 7 10 0 26 4 36 9 9 5 55 28 102 51 112 55 191 103 281 171 85 64 279
246 279 261 0 6 10 20 23 32 23 22 121 151 150 198 20 32 67 117 77 138 4 8
24 50 44 93 20 42 36 85 36 95 0 10 4 22 8 28 5 5 14 27 20 49 6 22 18 63 26
92 9 28 16 62 16 75 0 13 4 28 9 34 30 33 41 479 16 639 -23 148 -51 262 -66
280 -5 5 -9 16 -9 25 0 37 -103 267 -151 337 -16 23 -29 44 -29 47 0 29 -272
353 -325 388 -6 4 -42 32 -80 64 -111 91 -300 207 -395 243 -19 7 -62 24 -95
36 -79 30 -163 55 -186 55 -10 0 -21 5 -24 10 -3 6 -28 10 -54 10 -26 0 -52 5
-59 12 -12 12 -416 21 -507 12z m480 -89 c86 -14 207 -42 240 -55 11 -4 55
-21 97 -36 64 -23 77 -32 75 -49 -1 -13 5 -21 19 -23 18 -3 114 -100 114 -115
0 -3 -28 -8 -62 -10 -79 -7 -188 -26 -210 -38 -10 -5 -37 -9 -61 -9 -24 0 -47
-3 -51 -7 -4 -5 -42 -13 -84 -19 -72 -11 -78 -10 -93 9 -22 27 -50 17 -42 -15
10 -39 24 -48 77 -50 l51 -1 -45 -6 -45 -6 0 -54 c1 -74 23 -91 115 -91 50 0
73 4 85 16 24 25 8 33 -75 36 -73 3 -75 4 -75 28 0 24 3 25 80 32 44 4 159 13
255 22 96 8 201 17 233 21 63 7 61 8 71 -57 l5 -38 -68 0 c-45 0 -72 -5 -80
-13 -18 -23 -2 -27 96 -27 76 0 95 3 100 16 8 21 -17 152 -32 164 -14 11 -317
-7 -350 -21 -25 -11 -235 -19 -235 -9 0 4 21 10 48 13 26 4 83 14 127 23 75
15 144 26 240 40 22 4 46 11 53 16 22 19 13 61 -20 95 -101 105 137 -48 316
-202 56 -49 176 -180 206 -225 8 -12 25 -35 38 -50 48 -60 202 -352 202 -385
0 -9 7 -29 15 -46 22 -42 65 -208 81 -314 17 -116 17 -404 0 -520 -27 -178
-85 -362 -163 -520 -36 -74 -119 -213 -133 -225 -4 -3 -21 -26 -38 -51 -17
-26 -49 -65 -69 -86 -21 -21 -52 -55 -69 -74 -59 -65 -202 -183 -296 -242
-113 -72 -333 -177 -370 -177 -9 0 -20 -4 -23 -10 -3 -5 -19 -10 -34 -10 -15
0 -31 -3 -35 -7 -11 -11 -130 -39 -182 -42 -27 -1 -56 -7 -66 -12 -22 -12
-354 -12 -376 0 -9 5 -46 11 -82 15 -66 5 -108 14 -170 34 -19 7 -70 23 -113
37 -42 14 -85 29 -95 34 -9 5 -53 26 -97 47 -44 20 -108 57 -143 81 -35 24
-66 43 -71 43 -4 0 -16 8 -27 18 -10 9 -48 40 -84 69 -77 60 -116 100 -107
109 4 4 71 11 149 15 79 5 152 13 163 19 11 5 58 12 105 15 180 11 616 24 629
19 21 -7 0 -25 -40 -33 -17 -3 -37 -15 -43 -25 -6 -10 -30 -39 -53 -63 -36
-37 -43 -52 -43 -84 0 -45 38 -136 69 -163 11 -11 21 -25 21 -33 0 -7 5 -13
10 -13 6 0 18 -8 28 -18 49 -47 135 -68 184 -45 13 6 41 16 63 23 37 11 105
61 105 77 0 4 11 19 25 33 18 18 27 42 32 77 9 77 -3 117 -46 160 -21 21 -40
44 -43 52 -2 7 -19 19 -38 25 -18 6 -36 17 -38 25 -4 11 39 12 269 6 151 -4
282 -11 291 -16 9 -5 59 -9 112 -9 52 0 96 -4 98 -9 3 -10 317 -33 330 -25 5
3 8 18 8 34 0 20 6 31 19 35 11 3 23 15 27 27 9 28 -6 297 -17 304 -5 3 -9 16
-9 30 0 13 -4 24 -10 24 -5 0 -10 15 -10 33 0 44 -38 206 -61 262 -4 11 -10
36 -12 55 -3 19 -12 60 -21 90 -10 30 -21 78 -25 105 -12 71 -51 218 -62 229
-5 6 -9 27 -9 47 0 21 -4 41 -10 44 -5 3 -10 21 -10 38 0 46 -23 105 -48 123
-11 8 -22 27 -24 42 -2 19 -9 28 -25 30 -13 2 -23 9 -23 16 0 17 -29 76 -48
99 -8 9 -25 17 -36 17 -15 0 -28 14 -45 53 -14 28 -28 61 -31 72 -5 18 -13 20
-67 17 -36 -2 -63 1 -67 7 -4 6 -16 11 -27 11 -11 0 -39 18 -62 39 -62 58 -93
81 -110 81 -8 0 -17 7 -21 15 -8 23 -98 20 -138 -5 -24 -14 -51 -20 -95 -20
-69 0 -85 10 -48 30 25 13 50 69 47 105 0 10 3 24 9 31 17 20 22 95 8 120 -9
18 -10 30 -1 49 7 15 8 27 2 30 -6 4 -10 21 -10 39 0 17 -5 37 -11 43 -6 6
-11 28 -11 49 0 22 -7 64 -16 94 -24 89 -62 132 -62 71 0 -50 -18 -44 -22 7
-6 64 -10 76 -30 84 -10 4 -18 17 -18 28 0 11 -4 20 -10 20 -5 0 -12 0 -15 0
-3 0 -5 -2 -5 -5 0 -3 -7 -21 -15 -41 -8 -20 -15 -52 -15 -70 0 -26 -3 -32
-15 -28 -11 4 -19 -3 -26 -25 -6 -17 -15 -28 -20 -25 -14 9 -10 -20 6 -43 14
-20 14 -22 -7 -25 -16 -2 -24 -12 -29 -37 -4 -18 -13 -37 -19 -41 -9 -5 -11
-21 -6 -48 4 -28 2 -42 -7 -45 -9 -3 -9 -11 1 -41 9 -24 10 -41 4 -49 -10 -12
-4 -58 17 -142 6 -22 13 -53 17 -68 4 -16 15 -34 25 -40 37 -23 17 -29 -76
-22 -79 6 -99 5 -120 -9 -13 -9 -30 -16 -38 -16 -7 0 -26 -14 -42 -30 -48 -50
-125 -83 -185 -78 -46 3 -53 1 -64 -22 -18 -33 -33 -70 -41 -96 -3 -13 -16
-24 -33 -27 -31 -6 -62 -52 -62 -91 0 -20 -6 -27 -27 -31 -45 -10 -58 -20 -61
-51 -2 -16 -8 -32 -13 -35 -9 -5 -40 -113 -59 -204 -8 -40 -31 -128 -51 -195
-6 -19 -14 -57 -19 -85 -5 -27 -13 -65 -19 -84 -6 -19 -13 -53 -17 -75 -3 -23
-12 -54 -19 -71 -16 -35 -25 -79 -32 -155 -2 -30 -15 -78 -29 -107 -14 -31
-24 -70 -24 -97 0 -25 -4 -46 -10 -46 -15 0 -13 -127 3 -133 10 -4 10 -7 0
-18 -15 -16 -17 -125 -3 -134 5 -3 10 -16 10 -28 -1 -21 -2 -20 -28 9 -53 60
-72 84 -72 93 0 4 -9 16 -21 27 -25 23 -133 192 -160 254 -47 101 -58 130 -70
165 -7 22 -16 45 -20 50 -4 6 -14 41 -24 79 -9 38 -21 80 -25 92 -5 13 -16 74
-25 136 -30 213 -15 549 31 702 8 28 20 69 26 91 5 22 14 48 19 57 5 10 9 23
9 28 0 6 12 37 26 68 67 145 97 207 103 212 4 3 17 23 30 45 97 167 314 390
498 511 116 77 150 89 98 34 -21 -22 -26 -33 -18 -41 11 -11 200 -65 266 -76
15 -3 30 -10 33 -15 7 -11 -82 0 -108 13 -9 5 -31 9 -47 9 -17 0 -39 4 -49 9
-9 5 -43 14 -76 20 -63 11 -67 10 -100 -41 -10 -15 -15 -32 -11 -38 4 -6 -1
-20 -10 -30 -21 -23 -13 -50 14 -50 21 0 35 28 26 51 -3 9 7 27 24 43 26 25
32 27 63 17 54 -17 171 -41 198 -41 15 0 30 -4 35 -8 6 -5 35 -14 65 -20 30
-6 73 -15 95 -20 39 -7 40 -9 46 -56 3 -26 11 -51 18 -55 9 -6 5 -10 -13 -15
-26 -6 -35 -29 -16 -41 6 -3 10 -17 10 -31 l0 -24 -197 6 c-109 4 -238 9 -288
13 l-90 6 -3 54 c-3 52 -2 53 20 47 41 -11 136 -19 153 -12 28 10 -2 36 -41
36 -19 0 -34 5 -34 10 0 6 -15 10 -34 10 -19 0 -38 5 -41 10 -9 14 -48 13 -63
-2 -17 -17 -16 -182 1 -196 13 -11 650 -38 667 -27 13 8 13 112 -1 120 -7 5
-3 15 11 30 14 15 18 25 11 30 -6 3 -11 26 -11 50 0 31 -5 47 -17 53 -18 10
-19 7 40 73 15 17 27 36 27 42 0 17 -32 47 -51 47 -10 0 -21 5 -24 10 -3 6
-14 10 -23 10 -9 0 -30 7 -46 15 -15 8 -36 15 -45 15 -9 0 -21 4 -27 10 -5 5
-29 10 -54 12 -33 2 -45 -1 -47 -12 -2 -11 15 -20 59 -33 35 -10 71 -23 80
-28 10 -5 25 -9 33 -9 8 0 23 -4 33 -9 9 -5 25 -12 35 -15 22 -7 19 -34 -5
-50 -13 -8 -23 -8 -38 2 -11 6 -35 12 -54 12 -19 0 -37 4 -40 9 -3 5 -26 12
-51 15 -24 4 -47 11 -50 17 -4 5 -21 9 -40 9 -19 0 -37 5 -40 10 -3 6 -23 10
-43 10 -20 0 -45 7 -56 15 -18 13 -18 15 5 44 26 34 47 34 106 4 26 -14 34
-14 47 -4 22 18 9 38 -32 52 -48 15 -60 27 -36 35 10 3 28 10 39 14 71 29 164
60 182 60 12 0 24 4 27 9 6 9 22 13 153 33 45 7 84 15 86 18 10 10 365 -2 442
-15z m-720 -375 c17 -7 16 -9 -10 -9 -16 0 -37 4 -45 9 -12 8 -10 10 10 9 14
0 34 -4 45 -9z m85 -26 c0 -2 -9 -4 -21 -4 -11 0 -18 4 -14 10 5 8 35 3 35 -6z
m654 -616 c22 -7 46 -16 51 -20 6 -4 49 -39 97 -78 58 -46 97 -70 114 -70 14
0 34 -5 45 -10 13 -8 25 -7 39 0 17 9 22 7 30 -16 6 -15 15 -55 21 -88 5 -34
14 -83 20 -111 5 -27 13 -72 18 -100 28 -179 34 -212 41 -230 9 -21 17 -65 29
-150 4 -27 12 -60 19 -72 7 -12 12 -47 12 -77 0 -30 7 -81 16 -113 9 -32 20
-87 25 -123 4 -36 13 -85 18 -110 15 -68 13 -78 -19 -95 -35 -18 -98 -19 -160
-2 -51 14 -161 74 -173 95 -5 7 -22 25 -38 39 -16 15 -29 31 -29 36 0 20 -34
47 -58 47 -14 0 -41 5 -59 12 -27 10 -38 10 -53 0 -11 -7 -29 -12 -40 -12 -18
0 -20 5 -16 38 2 20 6 44 9 52 48 153 67 266 67 398 0 111 -19 234 -41 272 -5
8 -19 34 -30 58 -11 23 -27 42 -35 42 -8 0 -17 7 -21 16 -3 8 -17 20 -30 25
-19 7 -23 14 -17 27 4 9 9 67 12 127 3 80 8 112 18 118 8 4 14 21 14 36 0 19
7 31 23 39 29 14 33 14 81 0z m-534 -20 c0 -7 8 -69 17 -138 9 -69 18 -177 20
-241 l4 -116 -31 -7 c-18 -3 -44 -15 -60 -26 -15 -11 -40 -20 -54 -20 -29 0
-106 -71 -106 -98 0 -8 -11 -27 -24 -42 -22 -27 -23 -35 -21 -147 1 -79 7
-138 19 -178 10 -33 20 -72 23 -87 3 -15 14 -35 24 -44 10 -9 19 -23 19 -29 0
-7 16 -27 37 -44 20 -17 31 -31 25 -31 -29 0 -131 -58 -167 -94 -22 -23 -58
-50 -80 -61 -22 -11 -42 -22 -45 -26 -7 -7 -107 -29 -136 -29 -13 0 -42 6 -64
12 -34 11 -40 17 -40 41 0 31 -27 48 -41 26 -5 -8 -9 -36 -8 -64 1 -27 -3 -63
-9 -78 -7 -16 -12 -40 -12 -55 l0 -27 -25 26 c-25 25 -26 27 -15 100 6 41 18
94 26 118 8 25 14 64 14 88 0 25 4 53 10 63 17 32 53 222 54 285 1 54 -1 60
-19 60 -20 0 -29 -35 -61 -220 -3 -16 -9 -39 -14 -50 -5 -11 -11 -38 -14 -60
-8 -65 -25 -153 -46 -232 -24 -86 -25 -141 -5 -167 8 -11 15 -23 15 -28 0 -4
-31 -8 -70 -8 l-70 0 0 38 c0 21 6 46 14 57 14 22 16 29 46 185 11 57 25 109
30 114 6 6 10 26 10 46 0 20 4 40 10 46 11 11 29 87 37 154 3 25 9 50 13 55 5
6 14 42 21 80 7 39 19 79 26 90 7 11 13 36 13 57 0 20 4 39 9 42 5 3 12 27 16
53 4 27 16 70 26 98 10 27 19 58 19 68 0 9 7 17 15 17 16 0 21 -45 7 -54 -5
-3 -12 -40 -15 -83 -4 -48 -14 -95 -27 -121 -28 -58 -25 -146 5 -150 24 -3 39
40 55 153 5 39 14 90 20 115 10 42 34 170 47 248 4 23 11 32 24 32 23 0 23 1
5 -41 -8 -19 -19 -77 -26 -129 -6 -52 -15 -109 -20 -125 -16 -53 -40 -198 -40
-247 0 -26 -4 -50 -10 -53 -5 -3 -10 -24 -10 -45 0 -21 -4 -41 -8 -44 -5 -3
-12 -44 -16 -91 -3 -47 -10 -93 -15 -103 -27 -54 -32 -73 -29 -122 3 -47 6
-55 24 -58 17 -2 23 5 32 40 14 53 24 113 28 153 1 17 7 55 14 85 6 30 18 98
25 150 8 52 19 115 25 140 6 25 15 83 21 130 6 47 15 94 19 105 5 11 11 40 14
65 11 92 18 135 26 145 4 6 11 42 15 80 9 85 20 112 41 94 19 -16 97 5 141 37
17 13 35 24 39 24 4 0 26 19 48 43 23 23 50 47 61 54 27 16 105 17 105 1z
m370 -33 c0 -8 -4 -23 -9 -33 -8 -15 -40 -311 -60 -552 -3 -41 -10 -80 -13
-86 -4 -7 -10 -47 -14 -90 -3 -44 -12 -131 -21 -194 -8 -63 -18 -160 -21 -214
-9 -135 -26 -135 -41 1 -20 186 -31 305 -37 402 -3 54 -11 103 -19 115 -9 13
-16 64 -19 131 -10 189 -18 280 -26 290 -4 6 -10 30 -13 55 -17 138 -19 161
-14 175 9 22 307 23 307 0z m660 -281 c6 -14 10 -41 10 -60 0 -20 5 -45 11
-56 6 -12 13 -39 15 -62 2 -23 11 -79 20 -126 8 -47 19 -107 23 -135 5 -27 14
-81 21 -120 7 -38 16 -74 21 -79 5 -6 9 -27 9 -48 0 -48 20 -177 31 -203 5
-11 14 -49 20 -85 6 -36 15 -85 21 -110 19 -87 21 -155 4 -169 -13 -11 -17 -9
-27 15 -6 16 -12 72 -13 124 -3 102 -13 178 -27 196 -5 6 -14 49 -19 95 -17
133 -22 159 -31 165 -5 3 -9 24 -9 47 -1 23 -5 62 -11 87 -25 112 -31 138 -38
185 -24 140 -32 182 -41 205 -5 14 -11 51 -14 83 -3 32 -8 63 -12 68 -3 5 2 9
11 9 8 0 20 -12 25 -26z m118 -147 c7 -18 12 -52 12 -75 0 -22 5 -44 10 -47 6
-3 10 -22 10 -41 0 -20 5 -44 10 -55 10 -17 17 -47 35 -134 4 -16 10 -39 15
-50 4 -11 15 -56 25 -100 16 -78 20 -96 44 -182 6 -24 15 -60 20 -80 5 -21 17
-62 25 -92 9 -29 16 -63 16 -75 0 -13 3 -26 8 -30 4 -4 12 -38 18 -74 6 -37
15 -82 19 -99 l8 -33 -77 0 -77 0 20 26 c13 16 21 41 21 63 -1 40 -40 260 -66
361 -16 64 -27 133 -39 240 -8 77 -27 163 -38 177 -5 7 -13 50 -18 95 -11 113
-20 157 -30 164 -5 3 -9 21 -9 40 0 44 22 45 38 1z m-733 -173 c4 -42 4 -148
0 -237 -6 -140 -10 -164 -26 -180 -12 -11 -19 -32 -19 -57 0 -21 -4 -42 -10
-45 -5 -3 -10 -13 -10 -22 0 -14 -44 -109 -76 -163 l-15 -25 5 30 c3 17 10 82
16 145 6 63 16 134 21 157 5 23 9 73 9 112 0 38 4 72 9 75 5 3 12 41 15 83 4
43 12 113 18 155 l10 77 23 -15 c19 -12 24 -27 30 -90z m-421 -19 c21 -16 46
-60 46 -81 0 -7 11 -21 25 -30 22 -14 25 -24 25 -70 0 -30 5 -54 10 -54 6 0
10 -19 10 -42 1 -24 10 -110 21 -193 11 -82 22 -172 25 -200 5 -48 4 -49 -10
-25 -24 40 -36 70 -36 90 0 10 -17 36 -39 59 -43 45 -131 218 -138 271 -13
108 -14 134 -4 195 9 61 24 95 40 95 3 0 14 -7 25 -15z m601 -652 c63 -15 95
-31 95 -48 0 -3 -9 -1 -21 5 -11 7 -46 14 -77 16 -32 3 -72 7 -91 11 l-34 6
24 13 c30 17 22 17 104 -3z m-664 -14 c25 -13 16 -29 -17 -29 -13 0 -33 -4
-44 -10 -11 -5 -29 -14 -40 -20 -27 -14 -50 -13 -50 3 0 6 15 18 33 26 17 7
46 19 62 27 36 17 32 16 56 3z m624 -85 c74 -18 168 -59 186 -81 7 -7 17 -13
24 -13 6 0 17 -11 23 -25 6 -14 18 -25 27 -25 8 0 15 -5 15 -12 0 -6 15 -24
33 -40 59 -53 -28 1 -100 62 -7 5 -16 10 -20 10 -5 0 -13 10 -18 23 -7 14 -20
23 -40 25 -16 2 -49 12 -72 23 -24 10 -53 19 -65 19 -28 0 -119 45 -110 54 3
4 16 5 27 2 11 -3 52 -13 90 -22z m-577 -6 c19 -19 15 -24 -30 -37 -76 -21
-198 -79 -211 -98 -4 -7 -15 -13 -24 -13 -8 0 -31 -13 -50 -30 -62 -55 -55
-31 9 30 34 33 68 60 76 60 7 0 17 11 22 25 6 15 17 25 29 25 11 0 36 9 55 19
19 11 49 21 68 24 18 2 35 5 39 5 3 1 10 -3 17 -10z m480 -56 c9 -5 27 -14 39
-20 13 -7 27 -12 32 -12 6 0 21 -11 35 -25 18 -18 36 -25 65 -25 27 0 44 -6
53 -18 7 -11 23 -24 36 -31 12 -6 22 -16 22 -21 0 -11 -168 -13 -283 -4 -70 6
-77 9 -77 28 0 12 -5 27 -11 33 -9 9 -9 20 2 45 21 52 49 68 87 50z m-977 -80
c53 4 75 11 93 27 26 25 46 27 46 6 0 -8 -5 -15 -12 -15 -6 0 -19 -6 -27 -14
-18 -15 -129 -56 -154 -56 -9 0 -28 5 -42 12 -20 9 -25 18 -25 49 l0 38 26
-26 c24 -24 30 -25 95 -21z m562 6 c3 -23 13 -47 21 -54 40 -28 16 -34 -144
-34 -88 0 -160 3 -160 7 0 20 54 73 75 73 13 0 37 11 52 25 23 20 39 24 89 25
l61 0 6 -42z m883 21 c18 -17 40 -23 94 -27 67 -4 73 -3 99 22 31 29 41 26 41
-15 0 -56 -105 -80 -172 -39 -18 11 -39 20 -46 20 -16 0 -72 41 -72 52 0 16
34 8 56 -13z m-481 -199 c-16 -4 -36 -9 -44 -11 -7 -2 -16 2 -18 9 -3 8 9 12
44 11 42 -1 45 -2 18 -9z m-922 -7 c28 -9 -50 -20 -213 -28 -63 -3 -131 -10
-151 -16 -51 -16 -83 -9 -87 18 -3 23 -3 23 175 25 98 2 195 4 216 6 22 1 49
-1 60 -5z m557 -3 c11 -8 7 -9 -15 -4 -37 8 -45 14 -19 14 10 0 26 -5 34 -10z
m1340 -7 c13 -12 -20 -38 -46 -36 -206 15 -423 37 -419 43 5 7 457 1 465 -7z
m-1334 -259 c9 -14 30 -32 45 -40 27 -14 41 -54 19 -54 -5 0 -25 -14 -44 -31
-29 -25 -38 -28 -56 -19 -13 7 -20 21 -20 40 0 16 -5 32 -11 36 -13 7 -5 60
12 81 17 20 37 16 55 -13z"/>
<path d="M3175 4091 c-56 -20 -71 -47 -32 -56 20 -5 107 28 107 40 0 11 -13
35 -19 34 -3 0 -28 -8 -56 -18z"/>
<path d="M3060 4052 c-14 -2 -29 -8 -34 -13 -6 -5 -22 -9 -37 -9 -15 0 -31 -4
-34 -10 -3 -5 -14 -10 -23 -10 -9 0 -30 -7 -46 -15 -15 -8 -41 -15 -56 -15
-39 0 -78 -48 -52 -64 5 -3 19 0 33 7 13 7 51 20 84 31 33 10 68 22 77 27 10
5 26 9 35 9 24 0 103 31 103 40 0 15 -25 26 -50 22z"/>
<path d="M1743 3784 c-3 -9 0 -20 8 -25 19 -11 115 -23 134 -16 24 10 6 37
-25 37 -16 0 -32 5 -35 10 -10 17 -75 12 -82 -6z"/>
<path d="M1956 3761 c-4 -5 -3 -16 0 -25 5 -13 -1 -16 -35 -16 -28 0 -41 -4
-41 -14 0 -24 25 -35 82 -39 31 -2 63 -9 71 -16 9 -7 33 -11 54 -9 31 2 39 7
41 26 2 14 10 22 23 22 30 0 20 34 -11 38 -14 2 -29 8 -34 13 -6 5 -22 9 -37
9 -15 0 -31 5 -34 10 -8 12 -72 13 -79 1z m69 -51 c4 -6 -7 -10 -24 -10 -17 0
-31 5 -31 10 0 6 11 10 24 10 14 0 28 -4 31 -10z"/>
<path d="M2839 3656 c-15 -16 -11 -112 5 -125 13 -11 12 -17 -6 -46 -11 -20
-20 -55 -21 -82 -2 -45 0 -48 23 -48 23 0 25 4 27 43 2 68 4 69 64 60 30 -4
119 -17 199 -29 80 -11 153 -25 162 -30 10 -5 45 -9 78 -9 38 0 75 -7 99 -18
43 -21 61 -18 61 8 0 26 -30 40 -84 40 -26 0 -54 4 -64 10 -18 10 -131 29
-227 37 -33 2 -64 9 -70 14 -12 12 6 12 220 -6 231 -19 212 -20 228 18 21 51
29 143 14 156 -17 14 -694 20 -708 7z m668 -58 c-3 -13 -9 -40 -13 -61 -6 -34
-9 -38 -28 -32 -11 4 -122 15 -246 25 -355 29 -340 27 -340 61 l0 29 316 0
316 0 -5 -22z m-479 -105 c-10 -2 -26 -2 -35 0 -10 3 -2 5 17 5 19 0 27 -2 18
-5z"/>
<path d="M1920 3494 c-118 -7 -238 -16 -267 -20 -58 -7 -66 -19 -52 -81 5 -21
11 -55 14 -76 7 -46 36 -62 77 -41 15 8 45 14 68 14 34 0 40 3 40 21 0 19 -5
20 -67 18 l-68 -3 -3 35 c-2 18 -8 40 -14 47 -6 7 -9 15 -6 17 9 9 555 45 574
38 7 -2 15 -23 18 -45 6 -39 32 -72 48 -62 17 11 1 100 -25 142 -10 14 -40 14
-337 -4z"/>
<path d="M2075 3373 c-27 -2 -59 -8 -70 -13 -11 -5 -40 -11 -65 -12 -38 -3
-45 -6 -48 -25 -3 -21 0 -23 45 -22 85 0 187 15 191 27 2 7 24 12 52 12 50 0
74 15 49 31 -14 8 -52 9 -154 2z"/>
<path d="M2902 3368 c-14 -18 -6 -28 21 -28 11 0 28 -7 37 -15 9 -8 38 -18 63
-21 43 -6 47 -5 47 15 0 38 -142 79 -168 49z"/>
<path d="M3478 3317 c-13 -13 -27 -31 -33 -41 -8 -15 -15 -16 -38 -7 -16 6
-39 11 -53 11 -13 0 -33 5 -43 12 -23 14 -51 4 -51 -19 0 -14 19 -23 94 -40
52 -13 101 -20 109 -17 16 6 57 75 57 97 0 27 -19 29 -42 4z"/>
<path d="M3118 3324 c-5 -4 -8 -11 -8 -15 0 -14 81 -47 101 -42 20 5 26 37 10
47 -17 11 -96 18 -103 10z"/>
<path d="M3980 4291 c0 -11 6 -21 12 -23 24 -8 -22 -77 -118 -181 -18 -19 -34
-27 -52 -25 -45 5 -39 -27 15 -77 61 -56 83 -58 83 -7 0 25 9 47 28 70 l27 33
37 -38 37 -38 -28 -32 c-20 -23 -38 -33 -57 -33 -65 0 -63 -16 9 -81 37 -33
67 -66 67 -73 0 -7 14 -31 32 -54 38 -50 78 -58 78 -17 0 14 10 33 21 43 12 9
51 43 88 74 61 53 69 57 104 51 34 -5 37 -4 37 19 0 16 -11 33 -30 48 -16 13
-30 27 -30 31 0 17 -35 49 -52 49 -11 0 -18 8 -18 20 0 11 -25 46 -55 77 -45
47 -57 54 -69 44 -10 -8 -13 -22 -10 -40 6 -27 -26 -81 -49 -81 -6 0 -26 16
-44 37 l-34 36 28 29 c22 23 34 28 56 24 20 -4 30 -1 34 11 5 12 -10 32 -51
70 -59 55 -96 68 -96 34z m263 -263 c14 -7 29 -24 32 -38 5 -20 -2 -32 -42
-68 -110 -101 -131 -114 -163 -104 -41 12 -36 52 13 100 23 22 60 58 82 80 47
47 44 45 78 30z"/>
<path d="M1085 4270 c-5 -5 -27 -24 -47 -41 -21 -17 -38 -40 -38 -51 0 -16 6
-19 35 -17 28 3 41 -3 70 -31 19 -19 35 -38 35 -42 0 -12 -104 -10 -153 4 -24
6 -55 8 -69 5 -36 -9 -89 -77 -81 -105 7 -28 21 -28 50 0 l23 22 38 -35 c20
-20 56 -53 79 -75 47 -45 59 -72 40 -98 -13 -17 -16 -17 -48 -3 -28 12 -274
77 -294 77 -24 0 21 -102 75 -167 6 -7 10 -15 10 -19 0 -4 11 -22 25 -40 14
-18 25 -37 25 -43 0 -6 5 -11 10 -11 6 0 10 -15 10 -32 0 -70 42 -76 73 -10
24 53 22 72 -6 72 -24 0 -47 17 -47 34 0 6 10 24 23 40 20 25 26 27 44 17 12
-6 25 -20 28 -31 10 -31 30 -24 63 20 16 22 52 65 81 95 67 72 66 92 -1 86
-10 -1 -41 21 -70 49 l-53 52 55 -3 c30 -1 64 -5 75 -9 11 -4 48 -10 83 -14
56 -6 62 -5 62 11 0 10 -17 39 -37 65 -21 26 -62 76 -91 112 -29 36 -48 67
-42 71 5 3 10 17 10 31 0 25 -25 33 -45 14z m-213 -525 c0 -5 -5 -11 -11 -13
-6 -2 -11 4 -11 13 0 9 5 15 11 13 6 -2 11 -8 11 -13z"/>
<path d="M4312 3794 c-91 -44 -139 -139 -113 -223 13 -44 88 -131 112 -131 9
0 34 9 57 20 47 23 63 25 79 9 7 -7 18 -9 27 -6 18 7 11 40 -21 87 -12 19 -23
39 -23 45 0 6 -9 16 -19 22 -23 14 -37 2 -43 -37 -4 -29 -48 -54 -78 -45 -16
5 -20 15 -20 55 0 46 2 51 54 94 58 50 75 54 129 31 30 -12 37 -22 43 -52 5
-27 2 -45 -10 -66 -15 -26 -22 -67 -11 -67 11 0 55 24 55 30 0 4 14 10 30 14
23 4 30 11 30 30 0 13 -7 26 -14 29 -8 3 -18 22 -21 41 -8 41 -63 109 -107
130 -43 22 -74 19 -136 -10z"/>
<path d="M609 3702 c-35 -50 -41 -70 -28 -93 8 -16 13 -18 25 -8 8 6 16 10 17
8 2 -2 13 -18 25 -35 l21 -30 -36 -13 c-34 -13 -37 -12 -58 15 -12 15 -26 24
-32 21 -11 -7 -73 -132 -73 -146 0 -17 34 -22 45 -8 6 9 35 17 70 20 33 3 74
8 90 11 33 6 94 -19 105 -44 31 -69 52 -77 73 -28 49 113 49 123 4 115 -42 -7
-112 29 -134 68 -43 79 -55 111 -57 144 -2 49 -25 50 -57 3z"/>
<path d="M4585 3521 c-3 -10 -3 -25 0 -33 4 -11 -19 -27 -87 -61 -108 -53
-134 -62 -143 -47 -9 15 -35 12 -42 -6 -3 -8 -1 -25 5 -37 5 -12 15 -36 22
-54 19 -52 70 -57 70 -7 0 15 6 24 15 24 9 0 26 7 38 15 27 17 38 10 54 -33
12 -33 12 -34 -30 -52 -38 -18 -43 -18 -54 -4 -14 19 -53 10 -53 -12 0 -35 24
-104 41 -120 15 -14 21 -14 34 -4 8 7 15 19 15 26 0 8 12 19 28 25 15 7 36 15
47 20 11 5 49 18 84 29 57 18 66 19 73 5 11 -18 47 -20 54 -2 6 17 -48 149
-63 155 -7 2 -17 -8 -23 -22 -9 -24 -83 -70 -94 -58 -4 3 -6 16 -6 28 0 13 -4
26 -10 29 -21 13 -10 43 21 56 28 11 36 10 61 -4 34 -20 48 -15 48 17 0 26
-47 127 -64 138 -19 13 -34 9 -41 -11z"/>
<path d="M776 3323 c-4 -5 -85 -10 -179 -13 -166 -5 -172 -6 -175 -26 -2 -14
7 -29 25 -43 15 -11 44 -34 63 -50 19 -16 63 -52 98 -80 36 -31 62 -60 62 -71
0 -24 15 -33 39 -25 27 8 48 93 28 112 -12 12 -18 13 -35 2 -18 -11 -24 -10
-41 5 -19 17 -19 19 -2 49 21 39 56 48 64 17 6 -24 35 -24 48 0 32 62 39 91
29 110 -12 22 -14 23 -24 13z m-176 -119 c0 -8 -4 -12 -10 -9 -5 3 -10 10 -10
16 0 5 5 9 10 9 6 0 10 -7 10 -16z"/>
<path d="M383 3128 c-12 -17 -33 -89 -33 -117 0 -16 6 -21 24 -21 13 0 27 7
30 16 7 19 29 16 142 -18 83 -26 102 -46 84 -92 -9 -26 -13 -28 -53 -23 -23 3
-64 11 -92 17 -27 6 -62 13 -77 16 -14 4 -28 15 -31 25 -3 11 -14 19 -26 19
-22 0 -41 -48 -41 -107 0 -60 27 -84 55 -47 10 15 22 15 119 3 101 -12 109
-12 143 6 49 27 67 58 66 117 -1 70 -35 103 -126 122 -89 19 -141 45 -145 74
-4 24 -24 29 -39 10z"/>
<path d="M4658 3003 c-14 -16 -36 -52 -49 -81 -13 -29 -32 -55 -41 -58 -47
-14 -51 40 -7 79 40 35 33 53 -21 50 -53 -2 -94 -28 -84 -51 4 -9 10 -37 13
-62 4 -25 10 -51 15 -58 15 -24 67 -44 101 -38 33 7 85 46 85 66 0 6 12 28 26
50 25 37 56 51 68 32 7 -12 -22 -52 -38 -52 -18 0 -30 -30 -17 -43 13 -13 118
1 123 16 2 7 2 35 0 63 -5 73 -44 114 -105 114 -34 0 -48 -6 -69 -27z"/>
<path d="M4603 2775 c-77 -42 -113 -93 -113 -159 0 -24 10 -42 44 -75 48 -47
79 -51 84 -13 3 17 -2 25 -17 29 -11 3 -27 16 -37 30 -14 22 -14 29 -3 50 20
38 67 54 145 51 64 -3 70 -5 82 -31 18 -37 8 -60 -33 -80 -23 -11 -35 -24 -35
-37 0 -18 6 -20 58 -20 31 0 62 4 67 8 6 4 11 38 13 75 2 63 -1 73 -30 115
-18 26 -34 49 -36 51 -6 10 -172 15 -189 6z"/>
<path d="M618 2767 c-14 -15 -52 -27 -208 -66 -92 -23 -105 -29 -108 -49 -2
-14 3 -24 15 -28 10 -3 41 -15 68 -26 161 -65 214 -90 219 -105 4 -8 16 -13
28 -11 19 2 24 10 26 43 4 44 -20 74 -44 54 -7 -5 -24 -7 -38 -3 -32 8 -35 43
-6 69 19 17 21 17 40 0 35 -32 50 -13 50 65 0 73 -11 88 -42 57z m-128 -147
c0 -5 -2 -10 -4 -10 -3 0 -8 5 -11 10 -3 6 -1 10 4 10 6 0 11 -4 11 -10z"/>
<path d="M4810 2490 c-10 -18 -21 -20 -132 -20 -101 0 -123 3 -133 17 -25 34
-43 8 -50 -74 -3 -43 -10 -86 -15 -95 -11 -20 -13 -68 -4 -92 8 -21 40 -21 52
0 8 15 20 16 124 4 100 -11 116 -15 124 -34 5 -12 18 -21 28 -21 15 0 22 12
32 55 20 84 18 100 -10 100 -13 0 -26 -7 -30 -15 -3 -9 -18 -15 -35 -15 -51 0
-58 7 -52 48 6 34 9 37 44 40 32 3 38 0 47 -22 10 -27 38 -35 44 -13 3 6 7 45
10 85 6 67 5 72 -14 72 -10 0 -24 -9 -30 -20z m-164 -122 c-3 -13 -6 -30 -6
-40 0 -13 -8 -15 -42 -11 -57 7 -74 23 -56 52 10 17 23 21 62 21 45 0 48 -1
42 -22z"/>
<path d="M345 2483 c-42 -6 -48 -15 -51 -75 -5 -114 59 -178 177 -178 68 0
107 16 162 68 22 21 27 34 27 74 0 26 -4 48 -10 48 -5 0 -10 6 -10 14 0 19
-52 56 -78 56 -36 0 -35 -19 2 -52 46 -40 47 -70 3 -97 -83 -51 -198 -30 -205
38 -3 28 1 33 32 46 28 12 36 21 36 40 0 26 -10 28 -85 18z"/>
<path d="M327 2235 c-20 -20 -20 -12 -6 -75 11 -50 30 -65 55 -40 11 11 74 2
74 -10 0 -19 -31 -31 -63 -25 -27 5 -36 3 -41 -10 -5 -15 12 -87 34 -140 5
-11 11 -39 13 -62 3 -24 14 -62 26 -86 12 -24 21 -49 21 -55 0 -7 6 -15 14
-18 8 -3 12 -13 9 -23 -11 -44 64 -116 99 -95 6 4 42 10 79 13 l67 7 -70 -67
c-77 -73 -81 -88 -32 -139 l24 -25 12 32 c10 26 29 41 110 82 75 39 104 49
126 45 17 -4 32 -1 36 5 10 16 -25 90 -46 96 -11 4 -20 20 -23 43 -8 45 -35
113 -50 127 -7 6 -14 24 -18 40 -10 56 -35 136 -47 151 -19 22 -97 19 -110 -6
-9 -17 -6 -22 27 -37 49 -23 58 -63 18 -81 -53 -24 -77 -7 -50 34 32 49 -13
62 -84 25 -17 -10 -25 -9 -37 3 -11 11 -21 13 -39 6 -22 -9 -25 -7 -25 15 0
14 3 25 8 25 4 0 20 11 36 25 63 54 127 74 206 63 22 -3 25 1 28 31 2 18 -1
38 -7 44 -6 6 -11 19 -11 29 0 28 -30 34 -49 11 -21 -25 -95 -47 -118 -35 -10
5 -47 20 -83 32 -36 12 -72 31 -81 42 -15 19 -17 19 -32 3z m211 -363 c11 -15
9 -19 -19 -30 -17 -7 -38 -11 -45 -8 -15 6 -19 47 -7 60 11 11 56 -3 71 -22z
m212 -67 c15 -18 5 -35 -21 -35 -10 0 -27 -4 -37 -10 -21 -11 -120 -55 -145
-64 -30 -10 -58 11 -48 35 5 16 32 30 102 54 108 37 132 41 149 20z m44 -104
c8 -12 -18 -21 -57 -20 l-32 1 35 13 c43 17 47 17 54 6z m26 -103 c-36 -29
-46 -21 -15 12 19 19 31 26 34 19 2 -7 -6 -21 -19 -31z"/>
<path d="M4513 2175 c-43 -20 -73 -65 -73 -112 0 -34 6 -44 56 -88 l55 -50
-53 0 c-65 -1 -113 -27 -135 -72 -14 -31 -14 -36 5 -75 15 -33 34 -51 83 -80
35 -21 73 -38 84 -38 12 0 26 -5 32 -11 9 -9 23 -7 55 5 59 24 98 63 98 98 0
38 -50 128 -77 141 -37 16 -27 27 26 27 63 0 109 31 129 85 13 37 13 44 -6 85
-14 30 -35 54 -63 73 -37 23 -53 27 -114 26 -38 0 -84 -7 -102 -14z m177 -88
c34 -17 46 -28 48 -48 5 -40 -40 -55 -118 -39 -101 21 -152 70 -102 99 31 18
123 12 172 -12z m-80 -273 c31 -20 40 -33 40 -54 0 -37 -21 -43 -86 -24 -67
19 -106 38 -129 64 -51 57 92 69 175 14z"/>
<path d="M4275 1659 c-33 -64 -39 -109 -16 -109 5 0 21 -12 36 -26 29 -27 51
-26 62 3 4 11 -1 21 -15 31 -12 8 -22 25 -22 38 0 37 38 31 140 -23 75 -39 90
-51 90 -71 0 -41 40 -24 66 28 36 69 33 80 -23 77 -38 -1 -63 6 -121 36 -39
20 -79 37 -87 37 -8 0 -17 11 -21 25 -4 18 -13 25 -30 25 -19 0 -30 -13 -59
-71z"/>
<path d="M4308 1404 c-16 -8 -28 -19 -28 -24 0 -5 -15 -7 -32 -4 -27 4 -40 -2
-70 -29 -21 -18 -38 -38 -38 -45 0 -6 -16 -18 -35 -26 -43 -18 -71 -63 -85
-136 -6 -30 -16 -67 -21 -82 -14 -35 -45 -63 -54 -49 -14 24 -45 10 -75 -33
-16 -25 -30 -49 -30 -55 0 -6 -10 -11 -23 -11 -26 0 -50 -20 -77 -66 -13 -22
-26 -31 -43 -31 -14 0 -39 -10 -56 -22 -26 -19 -33 -20 -52 -9 -17 10 -23 10
-26 1 -3 -7 -11 -13 -19 -13 -7 0 -24 -15 -36 -34 -15 -22 -36 -38 -60 -45
-29 -9 -44 -23 -65 -59 -15 -26 -26 -54 -25 -63 5 -31 -56 -135 -103 -173 -36
-30 -45 -44 -43 -64 4 -38 22 -37 66 2 46 42 50 43 54 14 2 -12 17 -30 35 -41
l33 -19 23 26 c14 15 35 26 49 26 32 0 78 36 78 61 0 12 13 24 37 34 46 20 68
43 89 94 19 47 31 51 44 16 8 -20 16 -25 44 -25 18 0 39 7 46 15 7 8 23 15 36
15 13 0 24 5 24 10 0 6 6 10 14 10 20 0 46 39 46 67 0 15 6 23 16 23 25 0 83
70 96 115 7 22 25 54 41 70 16 17 35 43 43 58 8 15 19 25 24 22 13 -8 66 21
74 40 3 9 6 25 6 35 0 10 12 23 29 30 45 18 81 62 85 103 2 27 14 47 43 75 26
26 43 52 47 76 8 43 4 51 -34 71 -16 8 -30 25 -32 37 -4 28 -24 32 -60 12z"/>
<path d="M762 1279 c-12 -5 -24 -21 -28 -36 -4 -15 -14 -36 -22 -46 -13 -15
-13 -21 -2 -42 7 -14 19 -25 25 -25 16 0 47 -35 38 -43 -12 -13 30 -46 80 -63
28 -9 60 -25 71 -35 11 -11 27 -19 35 -20 9 -1 27 -2 41 -2 30 -2 42 -45 16
-59 -25 -14 -19 -33 18 -63 19 -15 36 -37 38 -49 3 -21 77 -66 110 -66 9 0 30
-13 46 -30 28 -28 36 -30 101 -30 64 0 70 -2 73 -22 2 -12 17 -31 33 -43 17
-11 29 -27 27 -36 -4 -21 24 -49 48 -49 10 0 22 -4 25 -10 3 -5 15 -10 25 -10
10 0 32 -14 49 -31 l31 -31 139 7 c98 5 140 4 145 -4 4 -6 20 -11 37 -11 30 0
34 -6 20 -28 -5 -8 -17 -11 -34 -7 -19 5 -28 2 -36 -13 -6 -12 -11 -23 -11
-26 0 -9 113 -66 132 -66 10 0 18 -4 18 -9 0 -12 36 -20 60 -14 25 7 26 30 1
38 -10 3 -27 15 -37 26 -15 17 -16 24 -6 39 7 11 12 26 12 35 0 8 6 34 14 57
8 24 17 59 20 79 6 33 4 36 -29 52 -40 19 -96 22 -111 7 -7 -7 -16 -4 -29 10
-10 11 -24 20 -30 20 -7 0 -15 9 -18 19 -7 29 -73 54 -100 39 -16 -8 -22 -8
-25 1 -2 7 -14 21 -26 33 -18 17 -30 19 -86 15 -78 -6 -109 8 -90 43 15 28 5
54 -28 71 -15 8 -39 27 -55 43 -23 24 -33 28 -61 23 -28 -5 -38 0 -65 27 -17
17 -31 37 -31 44 0 6 -17 15 -39 18 -59 9 -71 21 -43 43 31 27 29 64 -5 81
-16 8 -38 27 -51 42 -18 21 -32 28 -61 28 -24 0 -42 7 -54 20 -9 11 -26 20
-36 20 -11 0 -23 5 -26 10 -4 6 -30 10 -59 9 -29 -1 -58 1 -65 5 -20 13 -108
23 -129 15z m1254 -734 c10 -25 -15 -55 -46 -55 -34 0 -45 13 -26 32 7 8 17
24 20 36 6 18 11 20 27 11 11 -6 22 -16 25 -24z"/>
<path d="M3060 580 c-69 -59 -80 -72 -82 -94 -7 -94 14 -120 94 -114 32 2 58
0 58 -5 0 -15 -82 -87 -100 -87 -16 0 -12 -30 6 -37 9 -3 24 -1 33 5 9 7 34
20 56 31 33 16 47 32 74 86 31 61 33 72 27 128 -11 112 -89 153 -166 87z m66
-57 c19 -26 17 -61 -5 -73 -29 -15 -36 -13 -51 15 -11 20 -10 28 4 50 19 29
34 32 52 8z"/>
<path d="M2273 496 c-48 -27 -63 -48 -63 -88 0 -22 6 -46 14 -53 33 -33 91
-65 119 -65 25 0 28 -2 17 -15 -9 -11 -33 -15 -91 -15 -84 0 -101 -10 -73 -41
32 -36 160 -22 255 27 16 8 29 19 29 24 0 5 12 21 26 35 33 33 28 68 -19 134
-31 43 -37 46 -88 53 -30 3 -65 9 -79 12 -14 2 -35 -1 -47 -8z m115 -64 c14
-10 33 -68 24 -76 -13 -14 -70 -5 -87 14 -26 29 -13 70 23 70 15 0 33 -4 40
-8z"/>
<path d="M2669 465 c-58 -38 -65 -81 -21 -122 18 -18 23 -27 14 -30 -23 -9
-52 -46 -52 -68 0 -61 132 -96 217 -58 103 47 119 85 61 142 l-33 32 23 18
c17 13 23 25 20 46 -5 42 -48 63 -128 64 -54 1 -72 -3 -101 -24z m126 -60 c0
-25 -46 -33 -64 -11 -19 22 -4 38 32 34 24 -2 32 -8 32 -23z m15 -130 c19 -23
-5 -45 -51 -45 -44 0 -55 11 -37 40 15 24 69 27 88 5z"/>
</g>
</svg>
