<?xml version="1.0" standalone="no"?>
<!DOCTYPE svg PUBLIC "-//W3C//DTD SVG 20010904//EN"
 "http://www.w3.org/TR/2001/REC-SVG-20010904/DTD/svg10.dtd">
<svg version="1.0" xmlns="http://www.w3.org/2000/svg"
 width="260.000000pt" height="260.000000pt" viewBox="0 0 260.000000 260.000000"
 preserveAspectRatio="xMidYMid meet">
<metadata>
Created by potrace 1.14, written by Peter Selinger 2001-2017
</metadata>
<g transform="translate(0.000000,260.000000) scale(0.100000,-0.100000)"
fill="#000000" stroke="none">
<path d="M1070 2554 c-325 -59 -634 -261 -825 -539 -209 -305 -272 -705 -169
-1075 8 -30 19 -64 23 -75 5 -11 19 -45 31 -75 77 -189 250 -403 430 -532 237
-169 509 -248 805 -235 411 19 779 231 1009 582 86 131 149 286 187 460 21 94
18 381 -5 485 -88 404 -342 726 -710 901 -125 59 -167 73 -296 99 -121 24
-359 26 -480 4z m467 -54 c214 -42 385 -125 560 -272 153 -129 253 -266 333
-452 109 -254 127 -508 58 -789 -81 -333 -327 -631 -656 -797 -24 -12 -45 -20
-47 -18 -6 6 31 45 53 57 12 6 22 17 22 24 0 7 5 18 12 25 9 9 14 7 23 -5 11
-15 15 -15 49 1 21 10 40 25 43 34 4 9 18 29 32 43 14 14 37 45 51 68 14 24
35 47 48 52 12 5 26 17 29 26 4 10 17 26 29 36 13 10 26 28 30 40 3 12 14 31
24 42 28 33 31 54 10 67 -11 7 -20 18 -20 25 0 15 -26 17 -35 3 -3 -5 -16 -10
-29 -10 -13 0 -35 -13 -49 -30 -15 -16 -31 -30 -36 -30 -9 0 -23 -33 -38 -90
-7 -28 -14 -35 -32 -33 -15 2 -27 -6 -39 -27 -9 -16 -23 -30 -29 -30 -7 0 -20
-11 -29 -25 -9 -14 -25 -25 -35 -25 -10 0 -20 -4 -24 -10 -3 -5 -11 -7 -18 -4
-8 3 -31 -9 -52 -26 -21 -16 -41 -30 -46 -30 -6 0 -20 -28 -24 -50 -6 -30 -22
-60 -47 -87 -35 -36 -30 -67 6 -35 l21 20 17 -23 c18 -23 17 -24 -15 -33 -255
-77 -472 -80 -729 -11 -100 27 -301 127 -384 191 -78 60 -196 178 -248 248
-118 158 -205 368 -233 560 -10 70 -10 278 0 348 57 398 305 746 656 921 118
59 236 99 344 116 115 19 336 16 444 -5z m233 -2334 c0 -2 -7 -6 -15 -10 -8
-3 -15 -1 -15 4 0 6 7 10 15 10 8 0 15 -2 15 -4z"/>
<path d="M1313 2453 c-34 -7 -63 -50 -63 -95 0 -47 43 -98 83 -98 54 0 108 81
88 133 -17 43 -62 68 -108 60z m58 -59 c13 -35 -6 -94 -30 -94 -27 0 -41 21
-41 60 0 61 51 85 71 34z"/>
<path d="M1145 2440 c-4 -6 -10 -8 -15 -5 -5 3 -41 -2 -79 -11 -68 -15 -71
-17 -71 -45 0 -19 5 -29 15 -29 8 0 15 7 15 15 0 8 6 15 14 15 20 0 42 -105
26 -125 -16 -20 2 -26 43 -14 43 12 54 24 31 37 -22 12 -48 122 -29 122 8 0
17 -4 20 -10 11 -17 25 -11 25 11 0 12 5 19 13 17 16 -6 33 -131 18 -136 -25
-8 -8 -22 27 -22 48 0 57 8 36 31 -13 14 -15 34 -12 89 l4 70 -38 0 c-20 0
-40 -5 -43 -10z"/>
<path d="M1442 2438 c-9 -9 -8 -14 4 -23 12 -9 14 -23 8 -73 -3 -34 -11 -62
-15 -62 -20 0 -7 -18 16 -24 34 -9 47 0 34 22 -7 12 -8 29 -1 52 l9 35 34 -67
c18 -38 37 -68 40 -68 9 0 13 13 30 93 7 35 17 57 26 57 27 0 12 28 -18 34
-38 7 -54 -1 -39 -19 6 -7 8 -25 4 -40 -6 -26 -7 -25 -36 25 -16 29 -40 55
-54 60 -31 12 -28 12 -42 -2z"/>
<path d="M880 2286 c0 -47 -4 -88 -10 -91 -5 -3 -10 -10 -10 -16 0 -14 34 -11
56 6 16 12 17 16 5 24 -19 12 -6 43 16 39 10 -2 18 -11 18 -20 0 -27 11 -30
44 -13 29 15 42 35 22 35 -5 0 -35 27 -67 60 -32 33 -61 60 -66 60 -4 0 -8
-38 -8 -84z"/>
<path d="M1657 2297 c-38 -38 -66 -71 -64 -73 2 -2 18 -7 36 -10 31 -6 33 -5
26 15 -5 16 -2 21 12 21 10 0 25 -5 33 -10 13 -9 13 -12 -2 -24 -24 -18 -23
-22 15 -37 17 -7 56 -28 86 -47 48 -30 56 -33 77 -21 34 18 32 42 -3 35 -49
-10 -55 4 -27 62 17 37 31 52 44 52 33 0 23 25 -19 48 -39 22 -56 18 -45 -11
7 -20 -44 -119 -59 -114 -8 2 -13 35 -15 95 -2 65 -6 92 -15 90 -7 -1 -43 -33
-80 -71z m53 -17 c0 -5 -4 -10 -10 -10 -5 0 -10 5 -10 10 0 6 5 10 10 10 6 0
10 -4 10 -10z"/>
<path d="M757 2314 c-26 -14 -33 -42 -8 -37 6 2 18 -11 26 -28 l16 -30 -28 14
c-52 26 -89 28 -117 6 -28 -22 -27 -40 2 -32 23 6 72 -64 72 -102 0 -29 2 -30
40 -10 34 18 39 35 10 35 -12 0 -26 12 -35 30 -14 27 -14 30 0 30 9 0 33 -9
55 -20 69 -35 73 -28 35 52 -23 48 -31 75 -25 83 9 11 4 25 -9 25 -3 -1 -19
-8 -34 -16z"/>
<path d="M1105 2181 c-223 -61 -376 -165 -519 -353 -140 -183 -205 -462 -161
-688 70 -362 297 -624 635 -731 100 -32 113 -34 255 -34 142 0 155 2 255 34
310 98 534 336 617 651 87 330 -12 663 -267 903 -98 93 -203 156 -329 198 -90
30 -106 33 -256 36 -134 2 -172 0 -230 -16z m348 -27 c104 -22 197 -54 197
-66 0 -6 -2 -9 -5 -6 -3 2 -56 -12 -118 -32 -118 -39 -127 -48 -103 -95 6 -11
9 -24 8 -29 -2 -6 -1 -20 3 -33 5 -20 11 -23 55 -23 28 0 50 5 50 10 0 6 -18
10 -40 10 -27 0 -40 4 -40 14 0 10 21 15 78 19 42 4 113 9 158 13 76 6 81 5
86 -14 7 -27 1 -32 -39 -32 -18 0 -33 -4 -33 -10 0 -5 23 -10 51 -10 l52 0 -6
45 c-2 26 -7 48 -9 50 -2 2 -59 0 -126 -6 -195 -17 -188 -5 16 26 50 8 62 27
37 55 -49 54 67 -16 157 -94 107 -94 200 -243 254 -406 26 -79 28 -96 27 -250
0 -157 -1 -169 -30 -256 -17 -50 -41 -110 -53 -135 -112 -222 -316 -390 -551
-455 -100 -28 -338 -26 -442 4 -123 35 -250 105 -329 180 -44 42 -37 52 37 52
28 0 88 4 135 10 118 13 320 18 320 8 0 -4 -6 -8 -13 -8 -21 0 -77 -67 -77
-91 0 -44 42 -108 84 -129 38 -18 44 -18 86 -4 94 31 131 127 72 187 -15 15
-36 34 -46 41 -17 12 -4 13 90 10 100 -3 319 -18 422 -29 37 -4 42 -2 42 15 0
11 5 20 11 20 23 0 -7 248 -43 350 -3 8 -22 85 -42 170 -39 164 -63 230 -83
230 -7 0 -13 7 -13 15 0 9 -15 31 -34 50 -19 19 -37 43 -40 53 -5 14 -19 21
-52 25 -32 3 -55 14 -77 34 -50 46 -82 58 -112 45 -14 -7 -42 -12 -62 -12 -32
0 -34 2 -22 16 22 27 37 108 28 156 -4 24 -10 61 -14 83 -9 56 -26 96 -36 89
-5 -3 -6 -10 -3 -16 4 -7 2 -8 -4 -4 -7 4 -12 16 -12 27 0 11 -8 29 -19 40
-18 20 -18 20 -25 -3 -3 -13 -6 -34 -6 -47 0 -13 -3 -21 -7 -18 -12 12 -32
-27 -21 -40 8 -10 6 -13 -5 -13 -15 0 -29 -51 -31 -115 -1 -41 23 -138 37
-147 7 -4 -12 -8 -41 -8 -49 0 -89 -12 -102 -30 -11 -16 -71 -40 -99 -40 -25
0 -32 -6 -42 -35 -7 -19 -17 -35 -21 -35 -5 0 -18 -16 -29 -35 -12 -19 -27
-35 -35 -35 -8 0 -14 -8 -14 -18 0 -10 -4 -22 -9 -28 -8 -8 -20 -55 -87 -339
-15 -60 -35 -139 -45 -175 -19 -69 -23 -163 -8 -192 21 -39 -9 -14 -53 45 -87
116 -149 265 -169 404 -14 96 -6 268 15 350 55 211 183 396 358 514 56 38 84
51 60 27 -24 -24 -11 -35 50 -48 34 -8 57 -15 52 -17 -6 -2 -38 3 -72 11 -55
13 -62 12 -76 -3 -22 -24 -33 -75 -15 -69 8 3 14 11 14 19 0 8 5 20 12 26 12
14 29 11 175 -23 71 -17 77 -21 81 -47 2 -15 0 -30 -4 -32 -4 -3 -5 -14 -2
-25 5 -19 0 -20 -88 -20 -52 0 -118 3 -146 6 -48 6 -53 9 -53 31 0 23 2 24 45
17 30 -4 45 -3 45 5 0 6 -9 11 -19 11 -11 0 -22 4 -25 9 -9 14 -54 19 -65 8
-18 -18 -14 -94 5 -101 9 -3 66 -6 127 -7 161 -1 178 -14 32 -24 -66 -5 -124
-9 -130 -10 -5 -1 -16 -3 -24 -3 -10 -2 -12 -13 -8 -47 2 -26 7 -48 9 -51 8
-8 88 8 88 17 0 5 -15 9 -34 9 -28 0 -34 4 -38 24 -5 23 -2 25 46 30 132 13
246 14 246 2 0 -7 7 -21 15 -32 14 -18 14 -17 15 13 0 17 -7 39 -16 47 -10 10
-11 16 -4 16 8 0 11 14 8 40 -2 22 0 41 4 42 4 2 3 20 -1 40 -7 31 -5 43 11
63 10 14 17 28 15 32 -3 5 -38 19 -79 32 -100 33 -128 45 -128 53 0 3 26 14
58 24 182 55 300 66 425 38z m-349 -139 c31 -12 44 -21 37 -28 -6 -6 -42 -2
-103 13 -129 30 -120 26 -107 48 12 19 14 19 69 2 32 -10 79 -25 104 -35z
m593 33 c29 -27 29 -38 1 -38 -13 0 -74 -10 -136 -21 -84 -17 -116 -19 -124
-11 -7 7 -10 13 -7 15 6 5 223 76 233 76 6 1 20 -9 33 -21z m-620 -84 c-3 -3
-12 -4 -19 -1 -8 3 -5 6 6 6 11 1 17 -2 13 -5z m446 -370 c41 -32 66 -44 91
-44 33 0 33 0 44 -62 6 -35 13 -72 15 -83 3 -11 8 -40 11 -65 4 -25 16 -90 27
-145 10 -55 23 -122 29 -150 21 -109 22 -142 5 -149 -52 -19 -131 12 -189 74
-35 38 -53 45 -103 41 -28 -2 -28 -3 -3 104 30 128 27 185 -16 306 -3 9 -17
22 -30 30 -22 11 -24 17 -19 63 11 97 16 115 32 125 23 12 39 5 106 -45z
m-339 19 c3 -16 8 -62 11 -103 3 -41 8 -87 11 -103 4 -20 1 -28 -13 -33 -21
-7 -62 -23 -83 -34 -8 -4 -20 -16 -25 -27 -6 -12 -16 -27 -21 -34 -31 -40 -6
-191 42 -255 l23 -32 -24 -6 c-14 -4 -40 -20 -59 -36 -77 -68 -187 -82 -187
-24 0 10 7 53 16 94 16 76 41 217 51 280 3 19 14 83 26 141 20 106 20 106 50
107 16 0 45 13 64 29 36 28 93 63 106 63 3 0 9 -12 12 -27z m180 -35 c-2 -24
-9 -77 -13 -118 -34 -307 -57 -490 -62 -490 -3 0 -13 80 -23 178 -10 97 -23
215 -28 262 -4 47 -11 113 -14 148 l-6 62 76 0 76 0 -6 -42z m-438 -112 c-3
-13 -10 -52 -15 -87 -6 -35 -12 -75 -16 -89 -3 -14 -12 -70 -21 -125 -9 -55
-19 -113 -24 -130 -5 -16 -12 -64 -15 -105 -4 -41 -11 -84 -15 -95 -8 -19 -8
-19 -15 -2 -8 18 9 137 25 187 12 34 30 127 30 150 0 11 -6 20 -13 20 -8 0
-20 -41 -35 -117 -13 -65 -28 -137 -34 -161 -6 -23 -8 -58 -5 -77 6 -34 5 -35
-30 -35 -43 0 -45 -22 26 260 65 261 90 350 96 350 7 0 -8 -115 -16 -124 -12
-13 -11 -86 0 -86 5 0 12 8 15 18 7 22 33 154 41 212 8 47 12 60 22 60 3 0 2
-11 -1 -24z m784 -8 c0 -13 7 -57 16 -98 9 -41 26 -136 39 -210 13 -74 31
-170 40 -213 17 -78 14 -128 -5 -97 -6 8 -10 32 -10 53 0 35 -47 324 -55 336
-3 6 -45 233 -45 246 0 3 5 5 10 5 6 0 10 -10 10 -22z m60 -81 c0 -12 29 -139
65 -282 36 -143 65 -268 65 -277 0 -14 -8 -18 -35 -18 -33 0 -34 1 -24 23 8
18 5 50 -11 133 -22 115 -45 242 -60 334 -5 30 -12 70 -16 89 -5 25 -4 32 4
27 7 -4 12 -17 12 -29z m-380 -152 c0 -72 -4 -126 -10 -130 -5 -3 -10 -16 -10
-27 0 -23 -39 -112 -47 -105 -4 4 9 129 28 272 15 114 18 127 29 120 6 -4 10
-61 10 -130z m-190 42 c0 -6 7 -18 15 -27 8 -9 19 -53 24 -100 5 -47 13 -110
16 -140 5 -40 4 -51 -4 -40 -6 8 -11 23 -11 32 0 9 -7 21 -14 25 -8 5 -29 35
-47 68 -33 63 -43 137 -26 199 8 27 9 28 27 11 11 -10 20 -23 20 -28z m324
-317 c6 -6 -2 -6 -21 -1 -18 5 -34 7 -36 4 -3 -3 -14 0 -24 7 -14 9 -9 10 27
5 25 -3 49 -10 54 -15z m-375 5 c-3 -2 -22 -11 -42 -20 -40 -16 -52 -5 -14 13
22 11 65 16 56 7z m317 -40 c64 -16 87 -30 132 -74 40 -41 30 -39 -22 2 -23
18 -66 41 -96 50 -51 16 -94 36 -78 37 4 0 33 -7 64 -15z m-291 -5 c3 -5 -11
-14 -32 -19 -21 -6 -65 -27 -98 -47 -55 -33 -58 -33 -30 -7 48 45 62 54 102
69 46 16 50 16 58 4z m287 -51 c15 -10 36 -19 46 -19 10 0 27 -9 37 -20 18
-20 17 -20 -36 -20 -94 0 -129 10 -135 36 -13 53 30 64 88 23z m-472 2 c0 -12
-74 -41 -105 -41 -19 0 -25 5 -25 22 0 17 3 19 12 10 16 -16 60 -15 84 3 22
17 34 19 34 6z m213 -8 c2 -10 8 -26 12 -35 6 -16 -1 -18 -74 -18 -71 0 -81 2
-73 15 11 21 71 52 103 54 18 1 28 -5 32 -16z m449 7 c2 -6 20 -13 41 -17 29
-4 42 -1 58 13 21 19 21 19 18 -6 -3 -20 -11 -26 -36 -28 -28 -3 -113 30 -113
43 0 10 28 5 32 -5z m-737 -111 c-49 -16 -205 -24 -205 -11 0 7 35 12 98 15
53 1 106 3 117 4 11 1 7 -3 -10 -8z m482 5 c-3 -3 -12 -4 -19 -1 -8 3 -5 6 6
6 11 1 17 -2 13 -5z m425 -4 c64 0 87 -3 82 -11 -8 -14 -161 -6 -209 11 l-30
10 34 -5 c18 -3 74 -5 123 -5z m-584 -139 c12 -11 22 -23 22 -29 0 -15 -38
-45 -49 -38 -12 8 -24 63 -16 76 9 14 17 12 43 -9z"/>
<path d="M886 1922 c-4 -7 8 -14 29 -18 33 -6 55 -1 43 11 -11 11 -66 16 -72
7z"/>
<path d="M994 1905 c-4 -8 -12 -15 -20 -15 -35 0 -9 -20 40 -31 48 -10 57 -10
71 5 20 19 21 17 -27 39 -45 21 -57 21 -64 2z m33 -21 c-3 -3 -12 -4 -19 -1
-8 3 -5 6 6 6 11 1 17 -2 13 -5z"/>
<path d="M1440 1818 c0 -24 -3 -60 -6 -82 -5 -29 -3 -37 6 -34 8 2 14 14 15
26 1 12 4 24 6 26 2 2 45 -3 94 -10 50 -7 115 -16 145 -20 30 -4 63 -11 73
-16 15 -8 18 -6 15 9 -3 15 -22 21 -113 35 l-110 17 85 -4 c47 -3 95 -8 107
-11 25 -7 39 14 45 66 l3 35 -183 3 -183 2 1 -42z m340 -2 c0 -14 -3 -27 -7
-29 -6 -3 -298 18 -310 22 -2 1 -3 8 -3 16 0 13 24 15 160 15 l160 0 0 -24z"/>
<path d="M1023 1707 c-60 -9 -75 -18 -53 -32 17 -10 161 16 157 29 -5 15 -30
16 -104 3z"/>
<path d="M1475 1710 c-7 -12 61 -44 75 -35 17 11 11 23 -14 29 -13 3 -31 8
-39 12 -8 3 -18 0 -22 -6z"/>
<path d="M1580 1680 c0 -11 48 -25 56 -17 4 3 3 10 -1 16 -8 14 -55 14 -55 1z"/>
<path d="M1756 1675 c-4 -11 -16 -13 -51 -8 -61 8 -59 -12 3 -26 42 -9 49 -8
65 10 9 12 17 25 17 30 0 15 -27 10 -34 -6z"/>
<path d="M2024 2172 c9 -27 -65 -119 -85 -106 -4 2 -11 0 -14 -6 -4 -6 5 -20
19 -31 15 -12 41 -37 60 -56 19 -21 38 -33 45 -29 6 4 9 11 7 15 -3 4 14 27
38 50 29 29 48 40 59 35 9 -3 17 -11 17 -18 0 -20 -75 -86 -98 -86 -27 0 -28
-17 -3 -47 23 -27 41 -30 41 -5 1 20 84 88 105 84 37 -7 17 25 -73 117 -94 97
-130 123 -118 83z m76 -77 c0 -31 -26 -43 -47 -22 -21 21 -9 47 22 47 20 0 25
-5 25 -25z m-60 -79 c-16 -21 -50 -21 -50 0 0 8 5 25 11 36 l11 20 21 -20 c17
-17 18 -23 7 -36z"/>
<path d="M537 2158 c-31 -23 -36 -48 -9 -48 11 0 27 -10 38 -21 l19 -22 -66 7
c-63 7 -67 6 -82 -18 -23 -34 -21 -39 7 -32 18 4 33 -3 65 -33 41 -38 52 -61
29 -61 -7 0 -47 9 -88 20 -41 10 -78 16 -82 12 -4 -4 13 -38 37 -77 25 -38 45
-78 45 -87 0 -27 19 -22 32 8 10 22 9 27 -5 35 -9 6 -17 17 -17 25 0 22 29 29
43 10 11 -16 17 -12 55 33 46 54 52 71 24 71 -10 0 -29 12 -43 26 l-24 27 25
-6 c53 -13 120 -18 120 -10 0 4 -20 33 -45 63 -28 33 -44 62 -41 72 6 27 -6
29 -37 6z"/>
<path d="M2194 1930 c-32 -13 -64 -59 -64 -92 0 -17 10 -43 21 -60 19 -26 26
-29 53 -23 17 4 42 7 55 6 17 -1 22 3 17 14 -3 10 5 20 24 30 17 9 30 17 30
19 0 19 -35 79 -56 95 -28 22 -46 25 -80 11z m80 -56 c19 -18 19 -22 2 -53
l-13 -24 -12 21 c-14 27 -31 29 -31 3 0 -17 -18 -31 -41 -31 -18 0 -9 54 13
77 25 27 60 30 82 7z"/>
<path d="M306 1875 c-21 -32 -20 -42 4 -48 11 -3 20 -10 20 -16 0 -18 -31 -25
-40 -10 -5 7 -11 11 -13 9 -9 -11 -38 -72 -35 -75 2 -2 26 1 53 6 60 12 91 5
105 -21 14 -27 24 -25 38 5 17 37 15 42 -17 48 -40 8 -70 43 -77 89 -8 44 -16
47 -38 13z"/>
<path d="M2330 1782 c0 -22 -92 -69 -123 -64 -17 3 -19 0 -13 -25 4 -15 14
-33 22 -39 8 -7 14 -16 13 -20 -8 -47 20 -81 44 -51 18 22 107 49 122 37 20
-17 25 1 9 38 -19 47 -19 47 -43 23 -27 -27 -37 -26 -44 1 -9 31 1 41 34 34
34 -6 38 8 14 54 -17 34 -35 39 -35 12z m-37 -112 c3 -13 -1 -24 -14 -31 -24
-12 -39 -4 -39 21 0 16 10 23 41 29 4 0 9 -8 12 -19z"/>
<path d="M302 1683 c-68 -3 -92 -7 -89 -16 2 -7 30 -33 63 -60 32 -26 60 -54
62 -62 5 -23 29 -18 36 8 9 34 8 37 -19 37 -16 0 -25 6 -25 15 0 20 30 32 40
15 5 -9 12 -6 24 11 16 24 22 61 9 57 -5 -1 -50 -4 -101 -5z"/>
<path d="M186 1568 c-11 -43 -8 -50 22 -44 41 9 106 -16 110 -42 2 -16 -2 -22
-15 -22 -34 1 -107 21 -114 32 -13 20 -29 -3 -29 -43 0 -36 12 -51 24 -30 3 5
33 7 66 4 72 -7 100 11 100 62 0 39 -13 51 -63 60 -20 4 -48 16 -61 26 -30 24
-32 24 -40 -3z"/>
<path d="M2368 1523 c-8 -10 -22 -30 -31 -45 -10 -16 -22 -28 -27 -28 -16 0
-11 32 7 45 9 7 13 17 9 23 -10 17 -69 -6 -62 -25 3 -8 6 -23 6 -34 0 -24 39
-50 65 -43 11 3 31 23 44 46 17 31 26 37 34 28 9 -9 8 -15 -7 -25 -25 -19 -12
-35 22 -26 23 6 26 12 23 37 -5 44 -19 64 -45 64 -13 0 -30 -8 -38 -17z"/>
<path d="M301 1401 c-8 -5 -45 -17 -83 -27 -37 -10 -68 -22 -68 -26 0 -5 21
-18 48 -29 45 -20 108 -48 125 -57 4 -2 7 8 7 22 0 21 -5 26 -26 26 -19 0 -25
4 -22 18 3 12 12 16 31 14 25 -3 27 0 27 33 0 36 -11 43 -39 26z"/>
<path d="M2311 1393 c-34 -29 -37 -74 -7 -102 13 -13 30 -20 36 -16 8 5 5 13
-9 26 -27 25 -26 34 1 53 55 39 136 0 88 -41 -27 -23 -25 -33 6 -33 22 0 25
-2 14 -15 -16 -19 -126 -21 -133 -2 -9 25 -25 -9 -31 -70 -5 -44 -3 -63 6 -69
6 -4 14 -2 16 4 6 18 114 3 129 -17 15 -21 22 -12 30 33 l6 37 -37 -6 c-32 -7
-36 -5 -36 14 0 16 6 21 24 21 13 0 26 -6 29 -12 10 -28 18 4 22 80 4 69 2 84
-16 106 -17 22 -29 26 -69 26 -31 0 -55 -6 -69 -17z m49 -203 c0 -13 -5 -18
-15 -15 -8 3 -22 7 -31 10 -22 7 -7 25 22 25 17 0 24 -5 24 -20z"/>
<path d="M178 1262 c-25 -3 -28 -7 -28 -43 0 -85 94 -121 159 -60 38 35 39 54
6 87 -31 31 -56 22 -26 -10 23 -25 17 -40 -24 -56 -21 -8 -36 -8 -57 1 -34 14
-36 31 -5 52 27 19 14 34 -25 29z"/>
<path d="M162 1109 c3 -32 5 -34 38 -31 29 3 33 1 22 -10 -7 -7 -20 -13 -30
-13 -10 0 -16 -6 -14 -15 15 -65 36 -138 45 -155 6 -11 12 -22 12 -25 8 -47
16 -51 73 -44 l57 6 -40 -35 c-33 -29 -38 -38 -29 -53 14 -23 34 -30 34 -12 0
16 95 65 116 60 22 -5 24 15 5 39 -10 13 -20 33 -24 44 -3 11 -17 49 -30 85
-22 59 -27 65 -56 68 -17 2 -31 -1 -31 -6 0 -14 -46 -31 -69 -25 -29 7 -26 18
11 45 20 14 47 23 71 23 37 0 38 0 33 29 -8 38 -12 42 -30 27 -28 -23 -74 -15
-159 27 -5 2 -7 -11 -5 -29z m186 -131 c2 -9 -5 -18 -14 -22 -22 -9 -27 -2
-19 24 7 23 28 22 33 -2z m-74 -27 c7 -11 -22 -23 -35 -15 -5 3 -9 9 -9 15 0
12 37 12 44 0z m105 -44 c-2 -1 -28 -14 -57 -27 -40 -18 -55 -21 -64 -12 -14
14 -15 14 52 39 32 12 59 17 64 12 5 -5 8 -10 5 -12z m21 -47 c0 -5 -10 -10
-22 -9 -22 0 -22 1 -3 9 11 5 21 9 23 9 1 1 2 -3 2 -9z m30 -34 c0 -2 -8 -10
-17 -17 -16 -13 -17 -12 -4 4 13 16 21 21 21 13z"/>
<path d="M2276 1089 c-34 -27 -33 -51 3 -81 l28 -25 -43 -11 c-75 -20 -65 -84
19 -122 34 -16 46 -17 71 -6 45 18 54 40 32 78 -11 18 -24 36 -30 40 -6 4 -1
8 12 8 29 0 72 42 72 70 0 12 -11 32 -25 45 -32 33 -100 35 -139 4z m109 -31
c56 -25 14 -56 -53 -38 -37 10 -58 30 -45 44 10 10 71 7 98 -6z m-55 -133 c38
-20 39 -45 3 -45 -33 0 -97 36 -88 50 9 15 52 12 85 -5z"/>
<path d="M2171 841 l-20 -38 23 -22 c17 -16 26 -19 31 -11 4 7 2 17 -4 23 -15
15 -14 27 4 27 25 0 105 -43 105 -57 0 -23 19 -14 35 17 20 38 20 39 -13 38
-28 -1 -106 34 -117 52 -11 19 -24 10 -44 -29z"/>
<path d="M370 624 c-12 -29 -7 -54 10 -54 5 0 10 -7 10 -15 0 -15 95 -65 124
-65 14 0 15 -4 6 -20 -9 -17 -6 -27 16 -55 15 -20 37 -38 50 -41 13 -3 28 -12
35 -20 6 -8 27 -14 46 -14 34 0 72 -29 73 -55 0 -6 26 -23 59 -39 49 -23 66
-26 104 -21 49 8 107 -1 107 -16 0 -5 -9 -9 -20 -9 -36 0 -21 -26 27 -48 51
-23 73 -20 48 8 -15 16 -15 23 -2 74 15 54 14 57 -5 67 -11 6 -31 9 -44 6 -17
-3 -32 3 -47 19 -12 13 -30 24 -40 24 -10 0 -28 7 -40 15 -13 8 -33 13 -45 10
-35 -6 -50 3 -44 31 2 13 0 24 -5 24 -6 0 -21 9 -34 21 -13 11 -32 18 -42 15
-11 -3 -23 4 -33 19 -8 13 -27 26 -41 30 -24 6 -25 7 -7 20 18 13 18 15 -11
44 -17 17 -38 31 -48 31 -10 0 -28 6 -40 14 -12 8 -52 17 -89 21 -67 7 -68 7
-78 -21z m650 -354 c0 -13 -7 -20 -20 -20 -18 0 -19 2 -8 20 7 11 16 20 20 20
5 0 8 -9 8 -20z"/>
<path d="M1540 284 c-25 -21 -30 -33 -28 -58 3 -28 7 -31 43 -36 l40 -5 -35
-27 c-41 -32 -32 -49 14 -24 61 33 88 123 48 159 -26 24 -46 21 -82 -9z m53
-28 c6 -16 -16 -40 -26 -29 -4 3 -7 15 -7 25 0 21 25 24 33 4z"/>
<path d="M1143 245 c-13 -9 -23 -25 -23 -35 0 -24 38 -60 62 -60 11 0 16 -4
13 -10 -3 -5 -24 -10 -46 -10 -39 0 -53 -15 -24 -26 49 -19 155 29 155 69 0
26 -22 66 -39 71 -55 15 -78 15 -98 1z m80 -45 c4 -16 0 -20 -18 -20 -22 0
-40 22 -28 34 14 13 41 5 46 -14z"/>
<path d="M1352 234 c-25 -18 -29 -52 -6 -61 13 -5 12 -8 -5 -24 -49 -46 39
-80 109 -44 34 17 38 40 13 67 -9 11 -11 18 -5 18 20 0 13 39 -7 50 -28 15
-73 12 -99 -6z m68 -30 c0 -9 -7 -14 -17 -12 -25 5 -28 28 -4 28 12 0 21 -6
21 -16z m8 -71 c2 -8 -6 -13 -22 -13 -25 0 -33 10 -19 24 10 10 36 3 41 -11z"/>
</g>
</svg>
